<svg xmlns="http://www.w3.org/2000/svg">
    <!-- Logo -->
    <path id="logo" fill-rule="evenodd" clip-rule="evenodd" d="M39 0H26V13H13H0V26V39V52H13H26V39H39H52V26V13V0H39ZM13 39H26V26H39V13H26V26H13V39Z" fill="currentColor"/>

    <g id="logo-color">
        <mask id="path-1-inside-1_1103_3419" fill="white">
        <path fill-rule="evenodd" clip-rule="evenodd" d="M0 14H13H26V27H13V40H26V53H13H0V40V27V14Z"/>
        </mask>
        <path d="M0 14V13H-1V14H0ZM26 14H27V13H26V14ZM26 27V28H27V27H26ZM13 27V26H12V27H13ZM13 40H12V41H13V40ZM26 40H27V39H26V40ZM26 53V54H27V53H26ZM0 53H-1V54H0V53ZM13 13H0V15H13V13ZM26 13H13V15H26V13ZM27 27V14H25V27H27ZM13 28H26V26H13V28ZM14 40V27H12V40H14ZM13 41H26V39H13V41ZM25 40V53H27V40H25ZM26 52H13V54H26V52ZM0 54H13V52H0V54ZM-1 40V53H1V40H-1ZM-1 27V40H1V27H-1ZM-1 14V27H1V14H-1Z" fill="currentColor" mask="url(#path-1-inside-1_1103_3419)"/>
        <mask id="path-3-outside-2_1103_3419" maskUnits="userSpaceOnUse" x="25" y="0" width="28" height="41" fill="black">
        <rect fill="white" x="25" width="28" height="41"/>
        <path fill-rule="evenodd" clip-rule="evenodd" d="M26 1H39H52V14V27V40H39H26V27H39V14H26V1Z"/>
        </mask>
        <path d="M26 1V0H25V1H26ZM52 1H53V0H52V1ZM52 40V41H53V40H52ZM26 40H25V41H26V40ZM26 27V26H25V27H26ZM39 27V28H40V27H39ZM39 14H40V13H39V14ZM26 14H25V15H26V14ZM39 0H26V2H39V0ZM52 0H39V2H52V0ZM53 14V1H51V14H53ZM53 27V14H51V27H53ZM53 40V27H51V40H53ZM39 41H52V39H39V41ZM39 39H26V41H39V39ZM27 40V27H25V40H27ZM26 28H39V26H26V28ZM38 14V27H40V14H38ZM26 15H39V13H26V15ZM25 1V14H27V1H25Z" fill="currentColor" mask="url(#path-3-outside-2_1103_3419)"/>
    </g>

    <symbol id="arrow" width="24" height="24" viewBox="0 0 24 24" fill="none">
        <defs>
            <clipPath id="clip301_3445">
                <rect id="arrow-ios-back-outline" rx="0.000000" width="23.000000" height="23.000000" transform="translate(0.500000 0.500000)" fill="white" fill-opacity="0"/>
            </clipPath>
        </defs>
        <rect id="arrow-ios-back-outline" rx="0.000000" width="23.000000" height="23.000000" transform="translate(0.500000 0.500000)" fill="#FFFFFF" fill-opacity="0"/>
        <g clip-path="url(#clip301_3445)">
            <g opacity="0.000000">
                <path id="Vector" d="M24 0L24 24L0 24L0 0L24 0Z" fill="currentColor" fill-opacity="1.000000" fill-rule="evenodd"/>
            </g>
            <path id="Vector" d="M13.83 19C13.68 19 13.53 18.96 13.39 18.9C13.26 18.83 13.14 18.74 13.05 18.62L8.21 12.63C8.07 12.45 7.99 12.22 7.99 11.99C7.99 11.76 8.07 11.53 8.21 11.36L13.22 5.36C13.38 5.15 13.63 5.02 13.89 5C14.16 4.97 14.42 5.06 14.63 5.23C14.83 5.39 14.96 5.64 14.98 5.9C15.01 6.17 14.92 6.43 14.76 6.64L10.29 12L14.61 17.36C14.73 17.5 14.8 17.68 14.83 17.87C14.85 18.06 14.82 18.25 14.74 18.42C14.66 18.6 14.53 18.74 14.37 18.84C14.2 18.94 14.02 19 13.83 19Z" fill="currentColor" fill-opacity="1.000000" fill-rule="nonzero"/>
        </g>
    </symbol>


    <!-- Github -->
    <path id="github" d="M15.5 6C9.69875 6 5 10.5882 5 16.2529C5 20.7899 8.00562 24.6219 12.1794 25.9804C12.7044 26.0701 12.9012 25.7625 12.9012 25.4934C12.9012 25.2499 12.8881 24.4425 12.8881 23.5838C10.25 24.058 9.5675 22.9558 9.3575 22.3791C9.23938 22.0843 8.7275 21.1743 8.28125 20.9308C7.91375 20.7386 7.38875 20.2644 8.26813 20.2516C9.095 20.2388 9.68563 20.9949 9.8825 21.3025C10.8275 22.8533 12.3369 22.4175 12.9406 22.1484C13.0325 21.4819 13.3081 21.0334 13.61 20.777C11.2737 20.5207 8.8325 19.6364 8.8325 15.7147C8.8325 14.5997 9.23938 13.6769 9.90875 12.9592C9.80375 12.7029 9.43625 11.6519 10.0138 10.2422C10.0138 10.2422 10.8931 9.97301 12.9012 11.2931C13.7413 11.0624 14.6338 10.947 15.5263 10.947C16.4188 10.947 17.3113 11.0624 18.1513 11.2931C20.1594 9.9602 21.0387 10.2422 21.0387 10.2422C21.6163 11.6519 21.2488 12.7029 21.1438 12.9592C21.8131 13.6769 22.22 14.5868 22.22 15.7147C22.22 19.6492 19.7656 20.5207 17.4294 20.777C17.81 21.0975 18.1381 21.7126 18.1381 22.6738C18.1381 24.0452 18.125 25.1474 18.125 25.4934C18.125 25.7625 18.3219 26.0829 18.8469 25.9804C20.9314 25.2935 22.7428 23.9854 24.026 22.2403C25.3092 20.4953 25.9996 18.4012 26 16.2529C26 10.5882 21.3013 6 15.5 6Z" fill="currentColor"/>


    <!-- Figma -->
    <path id="figma" d="M16 16C16 15.1159 16.3687 14.2681 17.0251 13.643C17.6815 13.0179 18.5717 12.6667 19.5 12.6667C20.4283 12.6667 21.3185 13.0179 21.9749 13.643C22.6313 14.2681 23 15.1159 23 16C23 16.8841 22.6313 17.7319 21.9749 18.357C21.3185 18.9821 20.4283 19.3333 19.5 19.3333C18.5717 19.3333 17.6815 18.9821 17.0251 18.357C16.3687 17.7319 16 16.8841 16 16ZM9 22.6667C9 21.7826 9.36875 20.9348 10.0251 20.3096C10.6815 19.6845 11.5717 19.3333 12.5 19.3333H16V22.6667C16 23.5507 15.6313 24.3986 14.9749 25.0237C14.3185 25.6488 13.4283 26 12.5 26C11.5717 26 10.6815 25.6488 10.0251 25.0237C9.36875 24.3986 9 23.5507 9 22.6667ZM16 6V12.6667H19.5C20.4283 12.6667 21.3185 12.3155 21.9749 11.6904C22.6313 11.0652 23 10.2174 23 9.33333C23 8.44928 22.6313 7.60143 21.9749 6.97631C21.3185 6.35119 20.4283 6 19.5 6H16ZM9 9.33333C9 10.2174 9.36875 11.0652 10.0251 11.6904C10.6815 12.3155 11.5717 12.6667 12.5 12.6667H16V6H12.5C11.5717 6 10.6815 6.35119 10.0251 6.97631C9.36875 7.60143 9 8.44928 9 9.33333ZM9 16C9 16.8841 9.36875 17.7319 10.0251 18.357C10.6815 18.9821 11.5717 19.3333 12.5 19.3333H16V12.6667H12.5C11.5717 12.6667 10.6815 13.0179 10.0251 13.643C9.36875 14.2681 9 15.1159 9 16Z" fill="currentColor"/>


    <!-- Discord -->
    <path id="discord" d="M24.1641 7.65906C22.543 6.87826 20.8325 6.32099 19.0751 6.00114C19.0592 5.99832 19.0428 6.00076 19.0283 6.0081C19.0137 6.01544 19.0017 6.02733 18.9938 6.04214C18.7735 6.45211 18.5298 6.98835 18.3595 7.40816C16.4651 7.10643 14.5383 7.10643 12.6439 7.40816C12.4539 6.9405 12.239 6.48443 12.0002 6.04214C11.9922 6.02749 11.9801 6.01574 11.9656 6.00842C11.9511 6.0011 11.9348 5.99856 11.9189 6.00114C10.1611 6.31928 8.45021 6.87684 6.82991 7.65906C6.81605 7.66461 6.80445 7.67504 6.7971 7.68858C3.55651 12.7706 2.66745 17.7279 3.10339 22.623C3.10495 22.6459 3.11901 22.6689 3.1362 22.6836C5.02325 24.1507 7.13396 25.2708 9.37832 25.9962C9.39417 26.0014 9.4112 26.0013 9.42693 25.9957C9.44267 25.99 9.45629 25.9793 9.46582 25.965C9.94707 25.2763 10.3752 24.5498 10.7439 23.7856C10.7516 23.7699 10.7543 23.752 10.7514 23.7345C10.7486 23.7171 10.7405 23.7011 10.7283 23.6889C10.7202 23.6809 10.7107 23.6747 10.7002 23.6708C10.027 23.3993 9.37503 23.0731 8.7502 22.6951C8.73275 22.6847 8.71977 22.6677 8.71395 22.6476C8.70814 22.6274 8.70993 22.6057 8.71895 22.5869C8.72427 22.5747 8.73231 22.564 8.74239 22.5557C8.87364 22.4524 9.00489 22.3442 9.12989 22.236C9.14093 22.2266 9.15418 22.2206 9.16821 22.2186C9.18225 22.2166 9.19655 22.2186 9.20957 22.2245C13.3017 24.1858 17.7314 24.1858 21.7735 22.2245C21.787 22.2183 21.8018 22.2162 21.8164 22.2182C21.831 22.2202 21.8448 22.2264 21.8563 22.236C21.9813 22.3442 22.1126 22.4524 22.2438 22.5557C22.2544 22.5639 22.263 22.5747 22.2687 22.5872C22.2744 22.5996 22.277 22.6134 22.2764 22.6272C22.2758 22.641 22.2719 22.6544 22.2651 22.6663C22.2584 22.6781 22.2489 22.688 22.2376 22.6951C21.6142 23.0765 20.9614 23.4024 20.286 23.6692C20.2752 23.6733 20.2655 23.6798 20.2574 23.6883C20.2493 23.6968 20.243 23.7071 20.2391 23.7184C20.2355 23.7294 20.2341 23.741 20.2349 23.7525C20.2357 23.7641 20.2387 23.7754 20.2438 23.7856C20.6188 24.5482 21.0485 25.2763 21.5204 25.965C21.5299 25.9793 21.5435 25.99 21.5593 25.9957C21.575 26.0013 21.592 26.0014 21.6079 25.9962C23.856 25.2731 25.9701 24.1528 27.8594 22.6836C27.8688 22.6768 27.8767 22.6677 27.8824 22.6572C27.8881 22.6467 27.8914 22.635 27.8922 22.623C28.4141 16.9637 27.0188 12.0474 24.1954 7.69022C24.1925 7.68302 24.1883 7.67653 24.1829 7.67116C24.1775 7.66579 24.1711 7.66167 24.1641 7.65906ZM11.3549 19.6417C10.1221 19.6417 9.10801 18.4544 9.10801 16.9982C9.10801 15.5403 10.1033 14.353 11.3549 14.353C12.6158 14.353 13.6205 15.5502 13.6017 16.9982C13.6017 18.4544 12.6064 19.6417 11.3549 19.6417ZM19.661 19.6417C18.4298 19.6417 17.4142 18.4544 17.4142 16.9982C17.4142 15.5403 18.4095 14.353 19.661 14.353C20.922 14.353 21.9282 15.5502 21.9079 16.9982C21.9079 18.4544 20.922 19.6417 19.661 19.6417Z" fill="currentColor"/>

    <!-- Email -->
    <path id="email" d="M5.07187 9.20292C5.2168 8.57709 5.57307 8.01832 6.08232 7.6181C6.59158 7.21789 7.22365 6.99996 7.875 7H25.125C25.7764 6.99996 26.4084 7.21789 26.9177 7.6181C27.4269 8.01832 27.7832 8.57709 27.9281 9.20292L16.5 16.0865L5.07187 9.20292ZM5 10.8207V20.8847L13.3418 15.8442L5 10.8207ZM14.7189 16.6758L5.27456 22.3807C5.50791 22.8657 5.87619 23.2753 6.33656 23.5619C6.79693 23.8486 7.33044 24.0005 7.875 24H25.125C25.6695 24.0001 26.2028 23.8479 26.6629 23.561C27.123 23.274 27.491 22.8643 27.724 22.3793L18.2796 16.6744L16.5 17.7468L14.7189 16.6744V16.6758ZM19.6582 15.8457L28 20.8847V10.8207L19.6582 15.8442V15.8457Z" fill="currentColor"/>

    <!-- Telegram -->
    <path id="tg" d="M27 15.5C27 18.55 25.7884 21.4751 23.6317 23.6317C21.4751 25.7884 18.55 27 15.5 27C12.45 27 9.52494 25.7884 7.36827 23.6317C5.2116 21.4751 4 18.55 4 15.5C4 12.45 5.2116 9.52494 7.36827 7.36827C9.52494 5.2116 12.45 4 15.5 4C18.55 4 21.4751 5.2116 23.6317 7.36827C25.7884 9.52494 27 12.45 27 15.5ZM15.9126 12.4899C14.7942 12.9556 12.5574 13.9187 9.20519 15.3792C8.66181 15.5949 8.37575 15.8076 8.34987 16.0146C8.30675 16.3639 8.74519 16.5019 9.34175 16.6903L9.59331 16.7693C10.1798 16.9605 10.9704 17.1833 11.3801 17.1919C11.7539 17.2006 12.1693 17.0482 12.6279 16.7319C15.7602 14.6174 17.3774 13.5493 17.478 13.5263C17.5499 13.5091 17.6505 13.4889 17.7166 13.5493C17.7842 13.6083 17.777 13.7218 17.7698 13.752C17.7267 13.9374 16.006 15.5359 15.1162 16.3639C14.8387 16.6227 14.6418 16.8053 14.6016 16.8469C14.5129 16.9375 14.4228 17.0267 14.3313 17.1143C13.7851 17.6404 13.3768 18.0343 14.3529 18.6783C14.8229 18.9888 15.1996 19.2432 15.5747 19.4991C15.983 19.778 16.3912 20.0554 16.9202 20.4033C17.0539 20.4896 17.1833 20.583 17.3084 20.6721C17.7842 21.0114 18.214 21.3161 18.7416 21.2673C19.0492 21.2385 19.3669 20.951 19.5279 20.0885C19.9088 18.0516 20.6578 13.6399 20.8302 11.8214C20.8408 11.6703 20.8345 11.5184 20.8116 11.3686C20.798 11.2478 20.7395 11.1364 20.6477 11.0567C20.5169 10.9664 20.361 10.9196 20.2021 10.923C19.7708 10.9302 19.1052 11.1616 15.9126 12.4899Z" fill="currentColor"/>

    <!-- Codewars -->

    <g id="codewars" clip-path="url(#clip0_72240_3804)">
        <path id="Vector" d="M1.0161 16.266L0.907102 16.214C0.666269 16.0784 0.4721 15.873 0.350102 15.625C0.174794 15.3207 0.0814192 14.9762 0.0791016 14.625L0.105102 14.453C0.105102 14.187 0.173102 13.948 0.293102 13.719L0.402102 13.521C0.454102 13.412 0.532102 13.318 0.600102 13.229C0.63713 13.1849 0.662708 13.1324 0.674569 13.076C0.686431 13.0197 0.684209 12.9613 0.668102 12.906L0.600102 12.692C0.518485 12.434 0.474696 12.1656 0.470102 11.895L0.428102 11.734C0.428102 11.437 0.506102 11.145 0.694102 10.932L0.829102 10.76C0.923102 10.625 1.0691 10.546 1.2301 10.494C1.3601 10.452 1.4541 10.317 1.4701 10.161L1.4961 9.70802C1.4961 9.34902 1.6681 9.01502 1.9341 8.77002L2.2571 8.53002C2.3201 8.46702 2.3871 8.40002 2.4391 8.29002C2.5071 8.21202 2.5221 8.10202 2.5071 8.02402C2.4811 7.89402 2.5071 7.85202 2.5751 7.83602C2.7891 7.91902 2.9241 7.89302 3.0181 7.78402L3.1901 7.56002L3.6691 7.02402C3.73844 6.95118 3.78517 6.85979 3.80363 6.76093C3.82209 6.66207 3.81149 6.55997 3.7731 6.46702L3.6171 6.11802C3.5911 6.04002 3.6171 5.94602 3.6851 5.92002C3.8571 5.92002 3.9771 5.98302 4.0291 6.09202L4.0811 6.18602C4.1641 6.34702 4.3521 6.42602 4.4821 6.35802C4.72581 6.27028 4.98309 6.22627 5.2421 6.22802H5.6691C5.9611 6.22802 6.2001 6.02502 6.2581 5.71802C6.3101 5.34802 6.4401 5.05102 6.6281 4.85302C6.8311 4.62402 7.0551 4.45202 7.3211 4.31702C7.6701 4.13502 7.8841 3.86402 7.9511 3.52002C8.0451 3.09302 8.2691 2.78602 8.5761 2.58802L9.5921 2.01502L9.8841 1.83802C10.0561 1.73402 10.2171 1.59802 10.3531 1.43702L10.6191 1.11902C10.7333 0.991565 10.8814 0.899293 11.0461 0.853018C11.1761 0.811018 11.3641 0.785018 11.5251 0.801018L12.0561 0.837018C12.3221 0.837018 12.5351 0.905018 12.7491 0.998018L12.8841 1.06602C13.0191 1.11802 13.1501 1.09202 13.2171 0.998018L13.3371 0.930018L13.9101 0.331018C13.9687 0.267254 14.0423 0.21913 14.1242 0.191014C14.2061 0.162899 14.2937 0.155682 14.3791 0.170018C14.5511 0.196018 14.7231 0.264018 14.8841 0.347018C15.1241 0.477018 15.3221 0.529018 15.5511 0.529018H15.6861C15.9781 0.529018 16.2691 0.571018 16.5661 0.638018L16.7641 0.690018C16.8613 0.714296 16.9635 0.709413 17.0579 0.675979C17.1523 0.642546 17.2348 0.582041 17.2951 0.502018C17.3045 0.486431 17.3172 0.473142 17.3324 0.463124C17.3476 0.453106 17.3649 0.446613 17.3829 0.44412C17.4009 0.441627 17.4193 0.443198 17.4366 0.448717C17.4539 0.454236 17.4698 0.463564 17.4831 0.476018C17.5251 0.502018 17.5351 0.528018 17.5511 0.570018C17.5771 0.836018 17.7391 1.03902 17.9521 1.10102L18.1661 1.16902C18.3901 1.23702 18.5931 1.38302 18.7231 1.57002C18.8581 1.76802 19.0201 1.97102 19.2021 2.10102L19.3371 2.23602C19.4032 2.30047 19.4828 2.34936 19.5702 2.37911C19.6575 2.40887 19.7504 2.41874 19.8421 2.40802H20.6281C20.9511 2.40802 21.2581 2.46502 21.5661 2.59602C21.8581 2.73102 22.1651 2.75702 22.4411 2.64802C22.7381 2.55902 23.0451 2.51802 23.3521 2.55902L23.9251 2.64802C24.1911 2.67902 24.4561 2.80902 24.6181 3.01302L24.6861 3.07602C24.8161 3.21102 24.9521 3.38302 25.0821 3.57102C25.1255 3.65302 25.1909 3.72133 25.2709 3.7683C25.3509 3.81528 25.4423 3.83907 25.5351 3.83702H26.3631C26.5661 3.83702 26.7641 3.87902 26.9261 3.97202C27.0981 4.10202 27.2441 4.23802 27.3791 4.37302L27.5091 4.54502C27.6701 4.73302 27.7491 4.98302 27.7381 5.25302C27.7381 5.46702 27.8991 5.64902 28.1081 5.64902L28.3791 5.68002C28.5671 5.68002 28.7231 5.81002 28.8171 5.98202L28.9521 6.25302L29.2961 7.02402C29.3449 7.14264 29.3644 7.27126 29.3531 7.39902C29.3531 7.52902 29.3891 7.63902 29.4831 7.69102L29.6181 7.78502C29.7042 7.8494 29.7717 7.93538 29.8138 8.03424C29.856 8.13311 29.8712 8.24135 29.8581 8.34802L29.7641 8.97302L29.7381 9.23902C29.7272 9.31412 29.7363 9.39078 29.7646 9.46121C29.7928 9.53164 29.8393 9.59333 29.8991 9.64002C30.0971 9.77002 30.1911 9.94702 30.2011 10.145V10.411C30.2011 10.546 30.1751 10.708 30.0711 10.812C29.9819 10.9265 29.9343 11.0679 29.9361 11.213L29.9781 11.52C29.9781 11.734 30.1081 11.921 30.2441 12.051C30.333 12.1183 30.4074 12.2029 30.4629 12.2996C30.5184 12.3964 30.5538 12.5033 30.5671 12.614C30.6191 12.947 30.6301 13.213 30.6301 13.479V13.786C30.6301 13.895 30.6301 14 30.6721 14.104C30.7019 14.2019 30.7621 14.2878 30.8441 14.349L31.1101 14.547C31.3811 14.719 31.5681 14.948 31.6731 15.255C31.8081 15.547 31.8451 15.854 31.8451 16.161V16.265C31.8451 16.505 31.8191 16.76 31.7411 16.984C31.6738 17.2036 31.6865 17.44 31.7771 17.651C31.8861 17.839 31.9541 18.052 31.9801 18.281C32.0321 18.547 32.0061 18.812 31.9121 19.026L31.8861 19.12C31.8166 19.2833 31.7117 19.4291 31.5791 19.547C31.4441 19.682 31.3131 19.761 31.2351 19.854C31.1521 19.932 31.1001 20.068 31.1411 20.187L31.1771 20.375C31.2451 20.641 31.2451 20.906 31.1771 21.146V21.255C31.1251 21.453 31.0471 21.625 30.9631 21.786C30.8723 21.9549 30.7348 22.0941 30.5671 22.187L30.3641 22.317C30.315 22.3496 30.2747 22.3937 30.2466 22.4455C30.2185 22.4972 30.2036 22.5551 30.2031 22.614C30.205 22.741 30.1586 22.864 30.0731 22.958L29.8701 23.229C29.7401 23.401 29.5681 23.547 29.3801 23.625C29.2104 23.7422 29.0532 23.8766 28.9111 24.026C28.7781 24.1828 28.6787 24.3652 28.6191 24.562C28.6003 24.6658 28.5457 24.7598 28.4647 24.8274C28.3838 24.895 28.2816 24.9321 28.1761 24.932H27.4571C27.2691 24.932 27.0981 25.067 27.0191 25.229C26.9438 25.4078 26.8402 25.5733 26.7121 25.719C26.5826 25.8531 26.4894 26.018 26.4411 26.198C26.4151 26.359 26.2851 26.469 26.1491 26.412C26.0738 26.3776 25.9885 26.3724 25.9096 26.3974C25.8307 26.4223 25.7639 26.4756 25.7221 26.547C25.5884 26.7818 25.4236 26.9974 25.2321 27.188L25.1381 27.266C24.9611 27.401 24.7371 27.506 24.5341 27.506C24.2941 27.506 24.1751 27.615 24.1381 27.772C24.0963 27.9218 24.0685 28.0751 24.0551 28.23C24.0264 28.38 23.9829 28.5267 23.9251 28.668L23.8571 28.746C23.7221 28.949 23.6171 29.147 23.4821 29.319L23.4301 29.402C23.2581 29.626 23.0291 29.803 22.7631 29.866C22.4797 29.9613 22.182 30.0069 21.8831 30.001H21.6951C21.6224 30.005 21.5518 30.0265 21.4893 30.0638C21.4267 30.1011 21.3742 30.153 21.3361 30.215L21.2581 30.35L21.1751 30.506L21.0031 30.803C20.9397 30.9183 20.8541 31.02 20.7513 31.1022C20.6486 31.1844 20.5306 31.2455 20.4041 31.282C20.1249 31.3502 19.8371 31.3765 19.5501 31.36L19.3361 31.334C19.1481 31.334 18.9771 31.282 18.8051 31.199C18.6701 31.147 18.4821 31.199 18.4041 31.334C18.291 31.4993 18.1259 31.6221 17.9351 31.683L17.5341 31.813C17.2586 31.881 16.9706 31.881 16.6951 31.813L16.4811 31.745C16.3468 31.7357 16.2174 31.6908 16.1061 31.615C15.9851 31.549 15.8474 31.5201 15.7101 31.532L15.5331 31.563C15.2671 31.589 15.0281 31.563 14.7881 31.495L14.4291 31.412C14.2636 31.3599 14.1216 31.2512 14.0281 31.105C13.987 31.0322 13.9292 30.9701 13.8595 30.9239C13.7898 30.8777 13.7102 30.8486 13.6271 30.839H13.2001C12.9341 30.803 12.6951 30.709 12.5331 30.506L12.0021 30.001L11.8141 29.84L11.5221 29.626L11.3501 29.496C11.1417 29.3535 10.9025 29.2624 10.6521 29.23L9.8551 29.095C9.7721 29.095 9.7201 29.069 9.6411 29.053L9.3341 28.985C9.1991 28.959 9.0681 28.855 8.9751 28.719C8.8971 28.589 8.7461 28.531 8.6161 28.589C8.3501 28.693 8.1371 28.719 7.9231 28.761H7.7351C7.39578 28.7902 7.05469 28.731 6.7451 28.589C6.4271 28.454 6.2141 28.256 6.0161 28C5.93549 27.8821 5.83229 27.7814 5.71248 27.7036C5.59267 27.6258 5.45862 27.5726 5.3181 27.547L4.9481 27.469C4.67108 27.4122 4.40761 27.3026 4.1721 27.146C3.9061 26.958 3.7711 26.787 3.6671 26.573C3.5593 26.366 3.49531 26.1389 3.4791 25.906V25.802C3.4531 25.531 3.2651 25.292 3.0151 25.229C2.74431 25.15 2.49388 25.0132 2.2811 24.828C2.18692 24.7389 2.11199 24.6314 2.06091 24.5122C2.00983 24.3931 1.98369 24.2647 1.9841 24.135L2.0151 23.546C2.0151 23.317 1.9471 23.119 1.7861 22.973C1.6251 22.812 1.5201 22.614 1.5201 22.4L1.4781 21.921C1.44709 21.5698 1.38959 21.2215 1.3061 20.879C1.2281 20.572 1.3481 20.264 1.5981 20.119L1.6921 20.051C1.7597 20.0058 1.80821 19.9372 1.82832 19.8584C1.84844 19.7796 1.83875 19.6961 1.8011 19.624L1.6921 19.494C1.58506 19.3706 1.44643 19.2786 1.2911 19.228C1.1871 19.197 1.1611 19.093 1.1611 19.025L1.2911 18.864C1.328 18.8192 1.34818 18.763 1.34818 18.705C1.34818 18.647 1.328 18.5908 1.2911 18.546C1.19395 18.4434 1.13347 18.3116 1.1191 18.171L1.0931 17.239C1.0931 17.0504 1.1191 16.8647 1.1711 16.682C1.2281 16.521 1.1711 16.333 1.0151 16.255L1.0161 16.266ZM14.2141 14.505C14.3081 14.411 14.2921 14.239 14.2141 14.172C14.089 14.0739 13.9846 13.9518 13.9071 13.813L13.7721 13.599C13.6822 13.4307 13.5661 13.2778 13.4281 13.146L13.4021 13.12C13.2701 13.012 13.165 12.8747 13.0951 12.719C13.0617 12.6575 13.0442 12.5886 13.0442 12.5185C13.0442 12.4485 13.0617 12.3796 13.0951 12.318L13.1731 12.188C13.2577 12.0423 13.3042 11.8775 13.3081 11.709V11.652C13.301 11.51 13.2543 11.3728 13.1731 11.256C13.1144 11.1369 13.0707 11.0109 13.0431 10.881V10.803C13.0238 10.7221 13.0232 10.6378 13.0412 10.5566C13.0592 10.4753 13.0954 10.3992 13.1471 10.334C13.2561 10.162 13.3351 10.001 13.3761 9.80302V9.77202C13.4 9.69941 13.4073 9.62234 13.3975 9.54653C13.3876 9.47071 13.3608 9.39808 13.3191 9.33402C13.2792 9.2712 13.2538 9.20027 13.2448 9.1264C13.2358 9.05252 13.2434 8.97758 13.2671 8.90702L13.3611 8.64102C13.4391 8.40102 13.5641 8.18802 13.7201 8.00002L13.9081 7.80202L14.0431 7.64102L14.1211 7.56302C14.1606 7.51964 14.1845 7.4644 14.1892 7.40595C14.1939 7.34751 14.1791 7.28915 14.1471 7.24002C14.0765 7.119 14.0491 6.97766 14.0691 6.83902L14.0951 6.65102C14.1371 6.38502 14.2301 6.12002 14.4021 5.90602L14.4541 5.85402C14.6521 5.58802 14.9071 5.41102 15.1991 5.31802L15.5641 5.18802C15.7201 5.13602 15.8301 4.95902 15.8301 4.78702C15.8301 4.57302 15.8981 4.38602 16.0171 4.21402L16.0801 4.14602C16.2151 3.92202 16.3771 3.69302 16.4811 3.45302L16.5751 3.28102C16.5997 3.24001 16.6141 3.19372 16.6171 3.14602C16.6171 2.92202 16.4821 2.71902 16.2681 2.70802L15.6851 2.66602C15.3521 2.64002 15.0181 2.66602 14.6951 2.66602L13.5651 2.80102C13.3881 2.80102 13.2581 2.93102 13.2421 3.11902C13.2401 3.20765 13.211 3.29355 13.1589 3.36522C13.1067 3.43689 13.0338 3.4909 12.9501 3.52002L12.4711 3.65002L12.3361 3.69202L11.9351 3.82702C11.7881 3.87444 11.6527 3.95228 11.5378 4.05549C11.4229 4.15869 11.331 4.28494 11.2681 4.42602L11.1641 4.59802C11.0275 4.89377 10.8039 5.14078 10.5231 5.30602C10.2571 5.47802 10.1221 5.75902 10.0961 6.07702V6.21202C10.0701 6.47802 9.9871 6.74302 9.8301 6.93102L9.7621 7.04002C9.70923 7.10144 9.67479 7.17656 9.66276 7.25671C9.65073 7.33686 9.66159 7.41878 9.6941 7.49302C9.7621 7.64902 9.8031 7.82602 9.7881 7.99802V8.70602C9.78653 8.79061 9.7606 8.87296 9.71343 8.9432C9.66625 9.01343 9.59982 9.06857 9.5221 9.10202C9.43386 9.13412 9.35492 9.18752 9.29229 9.25748C9.22966 9.32743 9.18528 9.41178 9.1631 9.50302L9.0951 9.76902C9.06648 9.89863 9.07641 10.0338 9.12368 10.1578C9.17095 10.2818 9.25348 10.3893 9.3611 10.467C9.5751 10.623 9.7101 10.863 9.7621 11.16V11.4C9.8041 11.666 9.9501 11.931 10.1891 12.067C10.4291 12.228 10.6161 12.468 10.7201 12.734L10.7881 12.948C10.8332 13.0799 10.915 13.1961 11.024 13.2829C11.133 13.3697 11.2645 13.4236 11.4031 13.438H11.4811C11.7211 13.438 11.9341 13.573 12.0701 13.787C12.2001 14.001 12.4141 14.146 12.6531 14.188L13.0281 14.292C13.2571 14.36 13.4711 14.48 13.6431 14.651L13.6691 14.682C13.7398 14.7342 13.8277 14.7574 13.9149 14.7468C14.0021 14.7362 14.082 14.6926 14.1381 14.625L14.2321 14.521L14.2141 14.505ZM15.7341 13.281C15.8641 13.359 16.0001 13.317 16.0521 13.198L16.0941 13.135C16.1881 12.947 16.3081 12.76 16.4381 12.599L16.7091 12.198C16.7451 12.198 16.7611 12.172 16.7721 12.146L17.0951 11.719C17.2301 11.589 17.3871 11.495 17.5741 11.495C17.6598 11.4957 17.7438 11.4708 17.8153 11.4234C17.8867 11.376 17.9424 11.3083 17.9751 11.229C18.0271 11.041 18.1051 10.864 18.2671 10.719L18.3351 10.641C18.4701 10.506 18.6011 10.438 18.7361 10.375C18.9081 10.349 19.0691 10.318 19.2311 10.318H19.6271C19.7881 10.318 19.9241 10.255 20.0021 10.12C20.0801 9.98502 20.2001 9.89602 20.3351 9.82802L20.4701 9.77102C20.6841 9.68202 20.9231 9.61502 21.1631 9.58902L21.4291 9.56302C21.5901 9.56302 21.7621 9.56302 21.9241 9.65202C22.0541 9.74602 22.2311 9.73502 22.3621 9.62602L22.4561 9.57402C22.6541 9.43902 22.8831 9.33402 23.1231 9.30802H23.1491C23.4052 9.2635 23.6657 9.24941 23.9251 9.26602H24.0551C24.3211 9.30802 24.5501 9.40102 24.7221 9.59902L24.7641 9.65102C24.8991 9.78602 25.1081 9.89602 25.2951 9.89602H25.5241C25.5921 9.89602 25.6541 9.86502 25.6961 9.80202C25.7414 9.75432 25.8026 9.72481 25.8681 9.71902H26.0031C26.1911 9.71902 26.3621 9.77102 26.5341 9.82802L26.7631 9.92202C26.9771 9.98502 27.2011 10.052 27.4301 10.078H27.5911C27.6951 10.078 27.7631 10.015 27.7631 9.92202C27.7676 9.79067 27.735 9.66072 27.6691 9.54702L27.5751 9.33302C27.4711 9.16102 27.3871 8.97402 27.3091 8.80202L27.2831 8.73402C27.2497 8.67248 27.2322 8.60355 27.2322 8.53352C27.2322 8.46348 27.2497 8.39456 27.2831 8.33302V8.26502C27.2959 8.21187 27.2893 8.15591 27.2646 8.10716C27.2398 8.05842 27.1985 8.02008 27.1481 7.99902H27.0441C26.8336 7.93561 26.6469 7.81056 26.5081 7.64002L26.3781 7.50502C26.2431 7.37502 26.1641 7.17202 26.1071 6.97402C26.0441 6.80202 25.8991 6.66702 25.7111 6.66702H25.1481C25.0504 6.65328 24.9565 6.62042 24.8715 6.57031C24.7866 6.52021 24.7124 6.45384 24.6531 6.37502L24.6011 6.30702C24.5043 6.16802 24.4288 6.01533 24.3771 5.85402C24.3091 5.71902 24.1631 5.64002 24.0281 5.68202L23.8671 5.73402C23.6018 5.82868 23.3361 5.86335 23.0701 5.83802L22.8561 5.81202C22.6271 5.81202 22.4131 5.71802 22.2411 5.58802L22.1061 5.49402C22.005 5.41528 21.8928 5.35193 21.7731 5.30602C21.6431 5.25402 21.5331 5.28002 21.4551 5.37402L21.3871 5.45202C21.2521 5.59313 21.0748 5.68649 20.8821 5.71802L20.1631 5.76002C20.0272 5.76563 19.8987 5.82328 19.8041 5.92102C19.7002 6.0122 19.5744 6.07491 19.4391 6.10302H19.4131C19.2831 6.10302 19.1471 6.19702 19.0171 6.29102V6.31702C18.9539 6.38123 18.8786 6.43225 18.7955 6.4671C18.7124 6.50194 18.6232 6.51993 18.5331 6.52002L18.4811 6.54602C18.3201 6.54602 18.1631 6.54602 18.0021 6.58802H17.8411C17.6171 6.62402 17.4401 6.81202 17.3881 7.05202L17.3361 7.35902C17.2922 7.56779 17.2013 7.76378 17.0701 7.93202C16.9351 8.09302 16.7731 8.19802 16.5751 8.19802H16.3511C16.2161 8.22902 16.0801 8.37502 16.1061 8.53102C16.1371 8.76002 16.1061 8.95802 16.0701 9.16102L16.0181 9.38502C15.9952 9.4799 15.9502 9.56803 15.8867 9.64223C15.8233 9.71643 15.7433 9.7746 15.6531 9.81202L15.5751 9.85402H15.5491C15.4711 9.90602 15.4141 10.026 15.4811 10.12C15.5588 10.2384 15.5921 10.3804 15.5751 10.521L15.5331 10.948C15.5241 11.1021 15.4797 11.252 15.4031 11.386C15.3647 11.445 15.3422 11.5129 15.3376 11.5831C15.3331 11.6533 15.3467 11.7236 15.3771 11.787L15.5071 12.079C15.5752 12.2108 15.5902 12.3635 15.5491 12.506C15.5046 12.6347 15.4869 12.7712 15.4971 12.907C15.4971 13.042 15.5751 13.173 15.6851 13.23L15.7341 13.281ZM26.2661 22.922C26.4011 23.052 26.5991 23.104 26.7611 23L27.0271 22.828C27.1671 22.7313 27.2701 22.5899 27.3191 22.427V22.401L27.4541 22L27.5321 21.865L27.5891 21.735L27.6411 21.641C27.6651 21.5851 27.7015 21.5355 27.7476 21.4958C27.7937 21.4561 27.8483 21.4275 27.9071 21.412L27.9591 21.386C28.0681 21.36 28.1361 21.256 28.1361 21.146C28.1361 21.016 28.1991 20.906 28.2661 20.813L28.3751 20.719L28.6411 20.375V20.349C28.7187 20.2394 28.7735 20.1153 28.8021 19.984C28.8239 19.8493 28.804 19.7111 28.7451 19.588L28.7191 19.531C28.6721 19.4212 28.6405 19.3055 28.6251 19.187L28.5891 18.812L28.5471 18.411C28.5471 18.281 28.5991 18.145 28.6821 18.015C28.7711 17.906 28.8381 17.77 28.8961 17.64V17.588L28.9221 17.562C28.9481 17.427 28.8801 17.291 28.7611 17.291C28.6261 17.228 28.4951 17.119 28.4541 16.958L28.4121 16.88C28.3464 16.6459 28.3114 16.4042 28.3081 16.161L28.3341 15.494V15.452C28.3331 15.346 28.2905 15.2446 28.2155 15.1696C28.1405 15.0946 28.0391 15.0521 27.9331 15.051H27.9071C27.7835 15.0561 27.6602 15.035 27.5452 14.9891C27.4303 14.9433 27.3263 14.8738 27.2401 14.785L27.1361 14.65L26.8651 14.348L26.5211 13.947C26.3931 13.7609 26.2445 13.5898 26.0781 13.437C25.9481 13.307 25.7451 13.171 25.5471 13.145L25.2811 13.103C25.1206 13.0694 24.9673 13.0077 24.8281 12.921C24.7191 12.838 24.5621 12.864 24.4531 12.973L24.2811 13.161L24.1981 13.213C24.1041 13.239 24.0161 13.187 23.9741 13.078C23.9175 12.9126 23.9268 12.7318 24.0001 12.573V12.495C24.0001 12.401 23.9221 12.334 23.8391 12.36H23.6251C23.3841 12.3689 23.144 12.3245 22.9221 12.23L22.7871 12.173C22.6509 12.1055 22.5011 12.0699 22.3491 12.069C22.2084 12.0659 22.0696 12.1019 21.9481 12.173L21.8961 12.215C21.7354 12.3179 21.5507 12.3771 21.3601 12.387H20.9221C20.7287 12.3848 20.5401 12.4471 20.3861 12.564C20.2151 12.6675 20.0261 12.7381 19.8291 12.772L19.4701 12.829C19.294 12.8664 19.1286 12.943 18.9861 13.053C18.8561 13.188 18.6681 13.267 18.4961 13.319L18.4281 13.35C18.2093 13.414 18.0209 13.5546 17.8971 13.746L17.7361 13.907C17.6905 13.9689 17.666 14.0437 17.666 14.1205C17.666 14.1973 17.6905 14.2722 17.7361 14.334C17.8141 14.469 17.9761 14.506 18.1371 14.469L18.3351 14.386C18.4391 14.35 18.5641 14.386 18.6531 14.438C18.7441 14.5109 18.8602 14.5447 18.9761 14.532L19.3091 14.496C19.4971 14.496 19.6841 14.496 19.8661 14.548C20.0691 14.616 20.2411 14.683 20.4021 14.814C20.5535 14.9371 20.7386 15.0117 20.9331 15.028C21.1361 15.054 21.3341 15.096 21.5221 15.163L21.6521 15.189C21.7881 15.231 21.8958 15.3197 21.9751 15.455C22.0431 15.564 22.1051 15.721 22.1051 15.856V15.898C22.1051 16.054 22.2401 16.164 22.3761 16.164H22.4541C22.6681 16.164 22.8971 16.19 23.1211 16.258L23.2151 16.294C23.3582 16.3482 23.4828 16.4422 23.5741 16.565C23.6831 16.695 23.7461 16.831 23.7881 16.961L23.8301 17.149C23.8661 17.352 23.8821 17.55 23.8821 17.764V17.832C23.8821 17.962 23.9761 18.098 24.1221 18.15C24.2571 18.176 24.4141 18.233 24.5651 18.311L24.6281 18.337C24.8051 18.441 24.9771 18.577 25.1071 18.738L25.1751 18.832C25.3521 19.03 25.4411 19.285 25.4411 19.535V19.629C25.4404 19.833 25.4058 20.0294 25.3371 20.218C25.2851 20.379 25.3371 20.567 25.5091 20.619L25.6031 20.687C25.8061 20.765 25.9781 20.911 26.1081 21.083C26.2431 21.286 26.2961 21.51 26.2961 21.75V22.151C26.2701 22.286 26.2331 22.391 26.1661 22.484C26.0991 22.577 26.0981 22.713 26.1661 22.807L26.2441 22.937L26.2661 22.922ZM17.7341 16.094H17.7081C17.6511 16.094 17.6251 16.162 17.6401 16.229L17.6921 16.495C17.7441 16.709 17.7701 16.922 17.8011 17.136C17.8271 17.35 17.9311 17.532 18.0931 17.667H18.1451C18.2428 17.7442 18.323 17.8413 18.3804 17.9518C18.4378 18.0623 18.4711 18.1837 18.4781 18.308V18.975C18.4521 19.105 18.4781 19.241 18.5611 19.35L18.6241 19.413C18.7471 19.5655 18.8182 19.7533 18.8271 19.949L18.8631 20.683C18.8631 20.855 18.7591 21.001 18.5971 21.027L18.4671 21.053C18.3731 21.053 18.3321 21.162 18.3321 21.256C18.3321 21.36 18.3741 21.48 18.4101 21.589V21.615C18.4528 21.7464 18.4668 21.88 18.4521 22.016L18.4001 22.375C18.3515 22.6359 18.2617 22.8874 18.1341 23.12L18.0401 23.281C17.9822 23.3976 17.8867 23.4913 17.7691 23.547C17.7059 23.5729 17.6492 23.6125 17.6032 23.663C17.5572 23.7135 17.523 23.7736 17.5031 23.839L17.3991 24.318C17.3226 24.601 17.205 24.8712 17.0501 25.12H17.0241C16.8644 25.3375 16.6602 25.5186 16.4251 25.651L16.2641 25.76L15.8631 25.958C15.7993 25.9875 15.7438 26.0325 15.7019 26.0889C15.66 26.1453 15.6329 26.2114 15.6231 26.281L15.5601 26.719C15.5181 26.985 15.4251 27.214 15.2371 27.386L15.0651 27.589L14.8621 27.787L14.6641 28.001C14.5031 28.189 14.2631 28.267 13.9971 28.23L13.5181 28.136L13.0751 28.079H12.9551C12.9031 28.136 12.8921 28.214 12.9291 28.293C13.0231 28.454 13.1691 28.564 13.3301 28.564L13.6221 28.616C13.7571 28.616 13.9191 28.684 14.0491 28.746C14.1841 28.84 14.3151 28.907 14.4761 28.949H14.5021C14.6791 29.017 14.8611 29.027 15.0381 29.017L15.2361 28.986C15.4651 28.96 15.6791 28.986 15.8611 29.069L16.0221 29.121C16.0901 29.147 16.1941 29.121 16.2621 29.053C16.3384 28.9785 16.4289 28.92 16.5281 28.881L16.6371 28.855C16.8091 28.803 16.9811 28.772 17.1681 28.772H17.2771C17.4331 28.772 17.5841 28.803 17.7151 28.881L17.7671 28.907C17.8611 28.949 17.9701 28.907 18.0381 28.829C18.0741 28.735 18.1681 28.641 18.2621 28.563L18.5951 28.334L18.8091 28.199L18.9181 28.136C19.0607 28.0442 19.2275 27.9972 19.3971 28.001L19.8761 27.959C19.9693 27.9472 20.0569 27.9083 20.1282 27.8472C20.1995 27.786 20.2512 27.7053 20.2771 27.615C20.3291 27.412 20.4071 27.214 20.5431 27.042C20.6781 26.865 20.8091 26.719 20.9441 26.589C21.0942 26.4636 21.28 26.3887 21.4751 26.375H21.5841C21.6876 26.3537 21.7803 26.2966 21.8459 26.2138C21.9116 26.1309 21.946 26.0277 21.9431 25.922V25.026C21.9691 24.896 22.0211 24.719 22.0991 24.588L22.3701 24.187L22.4741 24.052C22.5571 23.984 22.6091 23.896 22.7031 23.786L22.8331 23.614C22.9161 23.479 22.9161 23.307 22.8071 23.187C22.6813 23.0463 22.603 22.8697 22.5831 22.682V22.625C22.5509 22.4025 22.5631 22.1758 22.6191 21.958V21.895C22.6884 21.717 22.7788 21.547 22.8901 21.385C22.941 21.3228 22.9652 21.2429 22.9573 21.1628C22.9494 21.0828 22.9102 21.0092 22.8481 20.958L22.6191 20.76C22.4361 20.5941 22.3225 20.3651 22.3011 20.119L22.2751 19.853C22.2751 19.77 22.2751 19.681 22.2491 19.587L22.2231 19.384C22.2061 19.2758 22.1661 19.1724 22.1059 19.0808C22.0457 18.9893 21.9667 18.9116 21.8741 18.853L21.7801 18.827C21.6322 18.7338 21.5047 18.6117 21.4051 18.468C21.3011 18.333 21.2491 18.145 21.2071 17.958L21.1651 17.734C21.1651 17.651 21.1131 17.599 21.0351 17.562L20.3941 17.359C20.2591 17.333 20.1281 17.229 20.0351 17.135H20.0091C19.9261 17.026 19.7951 17.026 19.7121 17.104L19.5821 17.239C19.5561 17.281 19.5251 17.291 19.4881 17.281C19.4051 17.281 19.3531 17.213 19.3791 17.146C19.394 17.0417 19.3811 16.9353 19.3418 16.8375C19.3025 16.7397 19.2381 16.654 19.1551 16.589L18.9781 16.454L18.5821 16.188C18.4731 16.146 18.3111 16.188 18.2591 16.318L18.2071 16.401C18.2071 16.427 18.1651 16.437 18.1551 16.453C18.0981 16.453 18.0201 16.453 18.0201 16.385L17.9781 16.317C17.9421 16.239 17.8481 16.187 17.7641 16.161L17.7341 16.094ZM16.1351 17.427L16.0671 17.359C15.9991 17.3077 15.9314 17.3164 15.8641 17.385C15.7683 17.5437 15.6962 17.7155 15.6501 17.895V17.921C15.6141 18.093 15.4521 18.213 15.2911 18.187H15.1351C15.0454 18.1889 14.9602 18.226 14.8978 18.2905C14.8354 18.3549 14.801 18.4414 14.8021 18.531C14.8021 18.771 14.7191 19.015 14.5731 19.198L14.4951 19.281C14.3551 19.4502 14.1689 19.575 13.9591 19.64L13.8551 19.666C13.7871 19.6835 13.7257 19.7204 13.6785 19.7723C13.6312 19.8242 13.6002 19.8887 13.5891 19.958C13.5891 20.093 13.5061 20.229 13.4011 20.333L13.2661 20.437C13.1051 20.614 12.8651 20.708 12.6251 20.734L11.9581 20.802C11.7441 20.802 11.5621 20.932 11.4271 21.135C11.2921 21.333 11.0941 21.468 10.8961 21.494L10.5991 21.52C10.3769 21.5488 10.1514 21.54 9.9321 21.494L9.8021 21.468L9.4371 21.374C9.381 21.3538 9.31989 21.352 9.26269 21.3689C9.20549 21.3858 9.15518 21.4205 9.1191 21.468L8.9841 21.64C8.90236 21.7345 8.79911 21.808 8.68303 21.8543C8.56696 21.9006 8.44146 21.9184 8.3171 21.906L7.4521 21.802C7.3171 21.802 7.2121 21.734 7.0931 21.667C6.9581 21.589 6.8641 21.495 6.7701 21.401L6.4371 21C6.4011 20.974 6.3331 20.958 6.2651 20.974L6.0771 21.052L5.3321 21.24C5.1971 21.282 5.0251 21.24 4.8941 21.162C4.7591 21.053 4.5971 21.027 4.4361 21.027H4.2641C4.22505 21.0369 4.18839 21.0546 4.15633 21.0791C4.12426 21.1035 4.09744 21.1341 4.07747 21.1691C4.0575 21.2041 4.04478 21.2427 4.04008 21.2828C4.03538 21.3228 4.03878 21.3633 4.0501 21.402L4.1021 21.668C4.1441 21.803 4.1331 21.96 4.0661 22.095C3.9991 22.23 4.0141 22.361 4.1021 22.496L4.1851 22.6C4.2891 22.761 4.4511 22.897 4.5861 23.027C4.7161 23.162 4.8521 23.293 4.9561 23.47L5.1591 23.829C5.20267 23.9184 5.27095 23.9934 5.35585 24.0452C5.44074 24.0969 5.5387 24.1232 5.6381 24.121C5.8361 24.121 6.0391 24.189 6.1951 24.319L6.5961 24.694C6.7051 24.788 6.8621 24.803 6.9711 24.72L7.0391 24.694C7.1171 24.694 7.1691 24.746 7.1691 24.829V24.897C7.1691 25.069 7.3041 25.23 7.4761 25.293L8.0751 25.428C8.2891 25.496 8.5021 25.563 8.7051 25.694H8.8091C8.83604 25.6939 8.86265 25.6882 8.88718 25.677C8.91171 25.6659 8.93359 25.6497 8.95136 25.6294C8.96914 25.6092 8.98241 25.5854 8.9903 25.5596C8.99819 25.5339 9.0005 25.5067 8.9971 25.48V25.016C8.9971 24.881 9.0491 24.745 9.1581 24.693L9.2261 24.667C9.2891 24.693 9.3561 24.745 9.3301 24.802V25.026C9.3301 25.198 9.3821 25.359 9.5021 25.479C9.55915 25.5388 9.63222 25.5809 9.71256 25.6002C9.7929 25.6195 9.8771 25.6153 9.9551 25.588C10.1161 25.52 10.2781 25.505 10.4501 25.52L10.9451 25.546C11.1851 25.572 11.4091 25.546 11.6121 25.452C11.8521 25.374 12.0501 25.264 12.2371 25.119L12.3151 25.067L12.7161 24.708C12.8395 24.581 13.0081 24.5081 13.1851 24.505H13.7161C13.8512 24.4872 13.9767 24.4256 14.0734 24.3297C14.1702 24.2338 14.233 24.1089 14.2521 23.974L14.3041 23.708C14.3041 23.531 14.3821 23.375 14.5021 23.239C14.6371 23.104 14.7681 23.025 14.9031 22.973L15.0641 22.905C15.177 22.8555 15.2781 22.7826 15.3607 22.691C15.4433 22.5995 15.5054 22.4914 15.5431 22.374L15.6211 22.051C15.6891 21.785 15.8241 21.52 16.0221 21.348L16.0481 21.317C16.2091 21.187 16.2361 20.921 16.1311 20.734L16.0891 20.64C16.0421 20.5654 16.0138 20.4805 16.0065 20.3926C15.9992 20.3048 16.0131 20.2164 16.0471 20.135C16.1151 19.947 16.1821 19.786 16.2871 19.625L16.4221 19.437C16.4741 19.333 16.4741 19.171 16.3961 19.078C16.3107 18.9734 16.2632 18.843 16.2611 18.708L16.2351 18.52V18.067C16.2546 17.9181 16.2402 17.7667 16.1931 17.624L16.1411 17.468L16.1351 17.427ZM14.2291 16.411V16.375C14.2291 16.24 14.1461 16.161 14.0411 16.161H13.6921C13.5685 16.1873 13.4407 16.1873 13.3171 16.161H12.7181C12.4111 16.161 12.1191 16.104 11.8271 16.026L11.5041 15.948L11.2381 15.865L10.6391 15.667C10.4854 15.6229 10.3429 15.5468 10.2208 15.4435C10.0988 15.3402 10 15.2123 9.9311 15.068L9.8631 14.933C9.7691 14.735 9.5711 14.626 9.3731 14.667C9.1441 14.667 8.9201 14.667 8.7061 14.563L8.5451 14.495C8.2381 14.36 8.0141 14.094 8.0141 13.735L7.9571 13.376C7.9211 13.188 7.8011 13.017 7.6391 12.949C7.45174 12.8627 7.27237 12.7599 7.1031 12.642L7.0401 12.6C6.82915 12.4389 6.66684 12.2226 6.5711 11.975L6.5451 11.897C6.47663 11.6811 6.46765 11.4506 6.5191 11.23L6.5451 11.147C6.5971 10.975 6.6131 10.803 6.6131 10.616C6.61153 10.4493 6.54392 10.29 6.4251 10.173L6.2371 10.001C6.13072 9.915 6.04373 9.80744 5.98186 9.68542C5.91999 9.5634 5.88463 9.42967 5.8781 9.29302C5.84598 9.00857 5.85474 8.72099 5.9041 8.43902V8.36102C5.90384 8.29055 5.87573 8.22305 5.8259 8.17322C5.77607 8.12339 5.70857 8.09528 5.6381 8.09502H5.5961C5.4241 8.09502 5.2781 8.19902 5.1951 8.36102C5.12876 8.53763 5.02969 8.70014 4.9031 8.84002L4.8511 8.90802L4.4501 9.30902C4.3151 9.43902 4.2361 9.64202 4.2101 9.84002C4.18542 10.0431 4.13118 10.2416 4.0491 10.429L4.0231 10.497C3.95882 10.6559 3.85274 10.7945 3.7161 10.898C3.65045 10.948 3.59643 11.0116 3.55775 11.0844C3.51908 11.1573 3.49668 11.2377 3.4921 11.32L3.4661 11.935C3.4661 12.201 3.4241 12.471 3.3311 12.737L3.3051 12.841C3.27099 12.9215 3.26863 13.012 3.2985 13.0942C3.32837 13.1764 3.38825 13.2442 3.4661 13.284L4.0231 13.524L4.0751 13.55C4.1171 13.55 4.1321 13.576 4.1431 13.618C4.1851 13.67 4.1431 13.748 4.1011 13.748L3.9711 13.816C3.8931 13.842 3.8361 13.925 3.8101 14.019L3.7841 14.149V14.175L3.6491 14.925C3.6231 15.029 3.6231 15.149 3.6231 15.269C3.62318 15.3205 3.63853 15.3707 3.66718 15.4134C3.69584 15.4562 3.73653 15.4894 3.7841 15.509L4.0761 15.644C4.2111 15.722 4.3731 15.816 4.4771 15.91L4.6121 16.019C4.65466 16.0726 4.70776 16.1168 4.7681 16.149L4.8251 16.201C4.91771 16.2817 4.98333 16.3889 5.0131 16.508L5.1431 17.107C5.1431 17.268 5.2781 17.404 5.4091 17.44L5.6231 17.508C5.6231 17.508 5.6651 17.508 5.6911 17.534L5.9571 17.617C6.1711 17.685 6.3581 17.805 6.5201 17.961C6.6811 18.096 6.8381 18.268 6.9731 18.456L7.0251 18.508C7.1341 18.643 7.2911 18.711 7.4521 18.669C7.6131 18.627 7.7851 18.617 7.9571 18.617H8.1601C8.2901 18.617 8.4671 18.653 8.6131 18.747C8.7431 18.83 8.9201 18.882 9.0771 18.95H9.1191C9.19552 18.9806 9.27831 18.9919 9.36012 18.9828C9.44194 18.9738 9.52025 18.9446 9.5881 18.898C9.72434 18.7906 9.89362 18.7337 10.0671 18.737L10.6921 18.773C10.8271 18.773 10.9581 18.747 11.0251 18.643H11.0511L11.2801 18.429L11.3481 18.361C11.4009 18.3006 11.4657 18.2518 11.5383 18.2178C11.611 18.1837 11.6899 18.165 11.7701 18.163H12.3741C12.5301 18.163 12.6811 18.028 12.7441 17.897C12.7786 17.8269 12.8291 17.7659 12.8914 17.7189C12.9538 17.6718 13.0263 17.64 13.1031 17.626L13.3741 17.574C13.4781 17.574 13.5721 17.48 13.6141 17.36C13.6457 17.2361 13.7149 17.1251 13.8121 17.042L14.0261 16.828C14.1482 16.7154 14.2288 16.565 14.2551 16.401L14.2291 16.411Z" fill="currentColor"/>
        </g>

</svg>
