<svg xmlns="http://www.w3.org/2000/svg">
    <!-- Logo -->
    <path id="logo" fill-rule="evenodd" clip-rule="evenodd" d="M39 0H26V13H13H0V26V39V52H13H26V39H39H52V26V13V0H39ZM13 39H26V26H39V13H26V26H13V39Z" fill="currentColor"/>

    <!-- Github -->
    <path id="github" d="M15.5 6C9.69875 6 5 10.5882 5 16.2529C5 20.7899 8.00562 24.6219 12.1794 25.9804C12.7044 26.0701 12.9012 25.7625 12.9012 25.4934C12.9012 25.2499 12.8881 24.4425 12.8881 23.5838C10.25 24.058 9.5675 22.9558 9.3575 22.3791C9.23938 22.0843 8.7275 21.1743 8.28125 20.9308C7.91375 20.7386 7.38875 20.2644 8.26813 20.2516C9.095 20.2388 9.68563 20.9949 9.8825 21.3025C10.8275 22.8533 12.3369 22.4175 12.9406 22.1484C13.0325 21.4819 13.3081 21.0334 13.61 20.777C11.2737 20.5207 8.8325 19.6364 8.8325 15.7147C8.8325 14.5997 9.23938 13.6769 9.90875 12.9592C9.80375 12.7029 9.43625 11.6519 10.0138 10.2422C10.0138 10.2422 10.8931 9.97301 12.9012 11.2931C13.7413 11.0624 14.6338 10.947 15.5263 10.947C16.4188 10.947 17.3113 11.0624 18.1513 11.2931C20.1594 9.9602 21.0387 10.2422 21.0387 10.2422C21.6163 11.6519 21.2488 12.7029 21.1438 12.9592C21.8131 13.6769 22.22 14.5868 22.22 15.7147C22.22 19.6492 19.7656 20.5207 17.4294 20.777C17.81 21.0975 18.1381 21.7126 18.1381 22.6738C18.1381 24.0452 18.125 25.1474 18.125 25.4934C18.125 25.7625 18.3219 26.0829 18.8469 25.9804C20.9314 25.2935 22.7428 23.9854 24.026 22.2403C25.3092 20.4953 25.9996 18.4012 26 16.2529C26 10.5882 21.3013 6 15.5 6Z" fill="currentColor"/>


    <path id="githubMobile" d="M31 12C19.3975 12 10 21.1764 10 32.5059C10 41.5797 16.0112 49.2438 24.3587 51.9608C25.4087 52.1403 25.8025 51.5251 25.8025 50.9868C25.8025 50.4998 25.7763 48.8849 25.7763 47.1676C20.5 48.116 19.135 45.9116 18.715 44.7581C18.4787 44.1686 17.455 42.3487 16.5625 41.8617C15.8275 41.4772 14.7775 40.5288 16.5363 40.5032C18.19 40.4775 19.3713 41.9898 19.765 42.605C21.655 45.7065 24.6738 44.835 25.8813 44.2968C26.065 42.9639 26.6162 42.0667 27.22 41.5541C22.5475 41.0414 17.665 39.2728 17.665 31.4293C17.665 29.1993 18.4788 27.3538 19.8175 25.9184C19.6075 25.4057 18.8725 23.3039 20.0275 20.4843C20.0275 20.4843 21.7863 19.946 25.8025 22.5862C27.4825 22.1248 29.2675 21.8941 31.0525 21.8941C32.8375 21.8941 34.6225 22.1248 36.3025 22.5862C40.3188 19.9204 42.0775 20.4843 42.0775 20.4843C43.2325 23.3039 42.4975 25.4057 42.2875 25.9184C43.6263 27.3538 44.44 29.1737 44.44 31.4293C44.44 39.2984 39.5313 41.0414 34.8588 41.5541C35.62 42.1949 36.2763 43.4253 36.2763 45.3477C36.2763 48.0903 36.25 50.2947 36.25 50.9868C36.25 51.5251 36.6438 52.1659 37.6938 51.9608C41.8628 50.5869 45.4856 47.9707 48.0521 44.4807C50.6185 40.9906 51.9993 36.8025 52 32.5059C52 21.1764 42.6025 12 31 12Z" fill="currentColor"/>

        

    <!-- Dribble -->
    <path id="dribble" fill-rule="evenodd" clip-rule="evenodd" d="M16.5 4C10.152 4 5 9.152 5 15.5C5 21.848 10.152 27 16.5 27C22.8365 27 28 21.848 28 15.5C28 9.152 22.8365 4 16.5 4ZM24.0958 9.3015C25.5115 11.0255 26.2951 13.1817 26.3167 15.4123C25.9918 15.3505 22.7488 14.6892 19.4814 15.1004C19.4066 14.9394 19.3434 14.764 19.2686 14.5901C19.0688 14.1157 18.8446 13.6298 18.6203 13.1669C22.2371 11.6964 23.8844 9.57606 24.0972 9.30006L24.0958 9.3015ZM16.5 5.69625C18.9941 5.69625 21.2768 6.63063 23.0119 8.16587C22.8365 8.416 21.3516 10.3983 17.8599 11.7079C16.2499 8.75238 14.4674 6.33162 14.1928 5.95788C14.9491 5.78129 15.7234 5.69349 16.5 5.69625ZM12.3212 6.61913C13.6375 8.44338 14.8535 10.3379 15.9638 12.2944C11.3739 13.5162 7.32012 13.4918 6.88312 13.4918C7.19917 12.005 7.85438 10.6114 8.79766 9.41949C9.74094 8.22761 10.9468 7.26973 12.3212 6.62056V6.61913ZM6.67181 15.5144V15.2125C7.09588 15.2269 11.8612 15.2887 16.7631 13.8167C17.0491 14.3644 17.3108 14.9264 17.5609 15.4871L17.1728 15.5992C12.1099 17.2336 9.416 21.6985 9.19031 22.0737C7.56856 20.2734 6.67131 17.936 6.67181 15.5129V15.5144ZM16.5 25.3282C14.3172 25.3316 12.1964 24.6027 10.4769 23.2582C10.6494 22.8959 12.6461 19.0549 18.1833 17.1215C18.2092 17.1086 18.2207 17.1086 18.2466 17.0971C19.1801 19.5068 19.8814 22.0002 20.341 24.5433C19.1277 25.0646 17.8205 25.3318 16.5 25.3282ZM21.9769 23.6449C21.8763 23.0454 21.3516 20.1776 20.0679 16.6471C23.1484 16.1613 25.8423 16.9591 26.1787 17.0712C25.9692 18.3975 25.4876 19.6662 24.7643 20.7974C24.0409 21.9287 23.0914 22.8982 21.9754 23.6449H21.9769Z" fill="currentColor"/>


    <path id="dribbleMobile" fill-rule="evenodd" clip-rule="evenodd" d="M33 8C20.304 8 10 18.304 10 31C10 43.696 20.304 54 33 54C45.673 54 56 43.696 56 31C56 18.304 45.673 8 33 8ZM48.1915 18.603C51.0229 22.0509 52.5902 26.3633 52.6334 30.8246C51.9836 30.701 45.4976 29.3785 38.9628 30.2008C38.8133 29.8788 38.6867 29.528 38.5372 29.1801C38.1376 28.2314 37.6891 27.2596 37.2406 26.3339C44.4741 23.3927 47.7689 19.1521 48.1944 18.6001L48.1915 18.603ZM33 11.3925C37.9881 11.3925 42.5536 13.2613 46.0237 16.3318C45.673 16.832 42.7031 20.7966 35.7198 23.4157C32.4998 17.5047 28.9347 12.6632 28.3856 11.9157C29.8982 11.5626 31.4468 11.387 33 11.3925V11.3925ZM24.6424 13.2383C27.2749 16.8868 29.707 20.6759 31.9276 24.5887C22.7477 27.0325 14.6402 26.9836 13.7662 26.9836C14.3983 24.0101 15.7088 21.2227 17.5953 18.839C19.4819 16.4552 21.8936 14.5395 24.6424 13.2411V13.2383ZM13.3436 31.0288V30.425C14.1917 30.4538 23.7224 30.5774 33.5261 27.6334C34.0982 28.7288 34.6215 29.8529 35.1217 30.9741L34.3455 31.1984C24.2198 34.4673 18.832 43.397 18.3806 44.1474C15.1371 40.5467 13.3426 35.872 13.3436 31.0259V31.0288ZM33 50.6564C28.6345 50.6632 24.3928 49.2054 20.9537 46.5164C21.2987 45.7919 25.2921 38.1099 36.3666 34.243C36.4184 34.2171 36.4414 34.2171 36.4931 34.1941C38.3602 39.0137 39.7628 44.0005 40.682 49.0866C38.2555 50.1293 35.641 50.6635 33 50.6564V50.6564ZM43.9538 47.2898C43.7525 46.0909 42.7031 40.3553 40.1358 33.2943C46.2969 32.3225 51.6846 33.9181 52.3574 34.1424C51.9383 36.795 50.9752 39.3323 49.5285 41.5949C48.0818 43.8574 46.1829 45.7963 43.9509 47.2898H43.9538Z" fill="currentColor"/> 


    <!-- Figma -->
    <path id="figma" d="M16 16C16 15.1159 16.3687 14.2681 17.0251 13.643C17.6815 13.0179 18.5717 12.6667 19.5 12.6667C20.4283 12.6667 21.3185 13.0179 21.9749 13.643C22.6313 14.2681 23 15.1159 23 16C23 16.8841 22.6313 17.7319 21.9749 18.357C21.3185 18.9821 20.4283 19.3333 19.5 19.3333C18.5717 19.3333 17.6815 18.9821 17.0251 18.357C16.3687 17.7319 16 16.8841 16 16ZM9 22.6667C9 21.7826 9.36875 20.9348 10.0251 20.3096C10.6815 19.6845 11.5717 19.3333 12.5 19.3333H16V22.6667C16 23.5507 15.6313 24.3986 14.9749 25.0237C14.3185 25.6488 13.4283 26 12.5 26C11.5717 26 10.6815 25.6488 10.0251 25.0237C9.36875 24.3986 9 23.5507 9 22.6667ZM16 6V12.6667H19.5C20.4283 12.6667 21.3185 12.3155 21.9749 11.6904C22.6313 11.0652 23 10.2174 23 9.33333C23 8.44928 22.6313 7.60143 21.9749 6.97631C21.3185 6.35119 20.4283 6 19.5 6H16ZM9 9.33333C9 10.2174 9.36875 11.0652 10.0251 11.6904C10.6815 12.3155 11.5717 12.6667 12.5 12.6667H16V6H12.5C11.5717 6 10.6815 6.35119 10.0251 6.97631C9.36875 7.60143 9 8.44928 9 9.33333ZM9 16C9 16.8841 9.36875 17.7319 10.0251 18.357C10.6815 18.9821 11.5717 19.3333 12.5 19.3333H16V12.6667H12.5C11.5717 12.6667 10.6815 13.0179 10.0251 13.643C9.36875 14.2681 9 15.1159 9 16Z" fill="currentColor"/>


    <path id="figmaMobile" d="M32 32C32 30.2319 32.7375 28.5362 34.0503 27.286C35.363 26.0357 37.1435 25.3333 39 25.3333C40.8565 25.3333 42.637 26.0357 43.9497 27.286C45.2625 28.5362 46 30.2319 46 32C46 33.7681 45.2625 35.4638 43.9497 36.714C42.637 37.9643 40.8565 38.6667 39 38.6667C37.1435 38.6667 35.363 37.9643 34.0503 36.714C32.7375 35.4638 32 33.7681 32 32ZM18 45.3333C18 43.5652 18.7375 41.8695 20.0503 40.6193C21.363 39.369 23.1435 38.6667 25 38.6667H32V45.3333C32 47.1014 31.2625 48.7971 29.9497 50.0474C28.637 51.2976 26.8565 52 25 52C23.1435 52 21.363 51.2976 20.0503 50.0474C18.7375 48.7971 18 47.1014 18 45.3333ZM32 12V25.3333H39C40.8565 25.3333 42.637 24.631 43.9497 23.3807C45.2625 22.1305 46 20.4348 46 18.6667C46 16.8986 45.2625 15.2029 43.9497 13.9526C42.637 12.7024 40.8565 12 39 12H32ZM18 18.6667C18 20.4348 18.7375 22.1305 20.0503 23.3807C21.363 24.631 23.1435 25.3333 25 25.3333H32V12H25C23.1435 12 21.363 12.7024 20.0503 13.9526C18.7375 15.2029 18 16.8986 18 18.6667V18.6667ZM18 32C18 33.7681 18.7375 35.4638 20.0503 36.714C21.363 37.9643 23.1435 38.6667 25 38.6667H32V25.3333H25C23.1435 25.3333 21.363 26.0357 20.0503 27.286C18.7375 28.5362 18 30.2319 18 32V32Z" fill="currentColor"/>


    <!-- Discord -->
    <path id="discord" d="M24.1641 7.65906C22.543 6.87826 20.8325 6.32099 19.0751 6.00114C19.0592 5.99832 19.0428 6.00076 19.0283 6.0081C19.0137 6.01544 19.0017 6.02733 18.9938 6.04214C18.7735 6.45211 18.5298 6.98835 18.3595 7.40816C16.4651 7.10643 14.5383 7.10643 12.6439 7.40816C12.4539 6.9405 12.239 6.48443 12.0002 6.04214C11.9922 6.02749 11.9801 6.01574 11.9656 6.00842C11.9511 6.0011 11.9348 5.99856 11.9189 6.00114C10.1611 6.31928 8.45021 6.87684 6.82991 7.65906C6.81605 7.66461 6.80445 7.67504 6.7971 7.68858C3.55651 12.7706 2.66745 17.7279 3.10339 22.623C3.10495 22.6459 3.11901 22.6689 3.1362 22.6836C5.02325 24.1507 7.13396 25.2708 9.37832 25.9962C9.39417 26.0014 9.4112 26.0013 9.42693 25.9957C9.44267 25.99 9.45629 25.9793 9.46582 25.965C9.94707 25.2763 10.3752 24.5498 10.7439 23.7856C10.7516 23.7699 10.7543 23.752 10.7514 23.7345C10.7486 23.7171 10.7405 23.7011 10.7283 23.6889C10.7202 23.6809 10.7107 23.6747 10.7002 23.6708C10.027 23.3993 9.37503 23.0731 8.7502 22.6951C8.73275 22.6847 8.71977 22.6677 8.71395 22.6476C8.70814 22.6274 8.70993 22.6057 8.71895 22.5869C8.72427 22.5747 8.73231 22.564 8.74239 22.5557C8.87364 22.4524 9.00489 22.3442 9.12989 22.236C9.14093 22.2266 9.15418 22.2206 9.16821 22.2186C9.18225 22.2166 9.19655 22.2186 9.20957 22.2245C13.3017 24.1858 17.7314 24.1858 21.7735 22.2245C21.787 22.2183 21.8018 22.2162 21.8164 22.2182C21.831 22.2202 21.8448 22.2264 21.8563 22.236C21.9813 22.3442 22.1126 22.4524 22.2438 22.5557C22.2544 22.5639 22.263 22.5747 22.2687 22.5872C22.2744 22.5996 22.277 22.6134 22.2764 22.6272C22.2758 22.641 22.2719 22.6544 22.2651 22.6663C22.2584 22.6781 22.2489 22.688 22.2376 22.6951C21.6142 23.0765 20.9614 23.4024 20.286 23.6692C20.2752 23.6733 20.2655 23.6798 20.2574 23.6883C20.2493 23.6968 20.243 23.7071 20.2391 23.7184C20.2355 23.7294 20.2341 23.741 20.2349 23.7525C20.2357 23.7641 20.2387 23.7754 20.2438 23.7856C20.6188 24.5482 21.0485 25.2763 21.5204 25.965C21.5299 25.9793 21.5435 25.99 21.5593 25.9957C21.575 26.0013 21.592 26.0014 21.6079 25.9962C23.856 25.2731 25.9701 24.1528 27.8594 22.6836C27.8688 22.6768 27.8767 22.6677 27.8824 22.6572C27.8881 22.6467 27.8914 22.635 27.8922 22.623C28.4141 16.9637 27.0188 12.0474 24.1954 7.69022C24.1925 7.68302 24.1883 7.67653 24.1829 7.67116C24.1775 7.66579 24.1711 7.66167 24.1641 7.65906ZM11.3549 19.6417C10.1221 19.6417 9.10801 18.4544 9.10801 16.9982C9.10801 15.5403 10.1033 14.353 11.3549 14.353C12.6158 14.353 13.6205 15.5502 13.6017 16.9982C13.6017 18.4544 12.6064 19.6417 11.3549 19.6417ZM19.661 19.6417C18.4298 19.6417 17.4142 18.4544 17.4142 16.9982C17.4142 15.5403 18.4095 14.353 19.661 14.353C20.922 14.353 21.9282 15.5502 21.9079 16.9982C21.9079 18.4544 20.922 19.6417 19.661 19.6417Z" fill="#ABB2BF"/>

    <!-- Email -->
    <path id='email' d="M0.071875 2.20292C0.216801 1.57709 0.573067 1.01832 1.08232 0.618104C1.59158 0.217889 2.22365 -4.32004e-05 2.875 6.42336e-09H20.125C20.7764 -4.32004e-05 21.4084 0.217889 21.9177 0.618104C22.4269 1.01832 22.7832 1.57709 22.9281 2.20292L11.5 9.0865L0.071875 2.20292ZM0 3.82075V13.8847L8.34181 8.84425L0 3.82075ZM9.71894 9.67583L0.274563 15.3807C0.507907 15.8657 0.876195 16.2753 1.33656 16.5619C1.79693 16.8486 2.33044 17.0005 2.875 17H20.125C20.6695 17.0001 21.2028 16.8479 21.6629 16.561C22.123 16.274 22.491 15.8643 22.724 15.3793L13.2796 9.67442L11.5 10.7468L9.71894 9.67442V9.67583ZM14.6582 8.84567L23 13.8847V3.82075L14.6582 8.84425V8.84567Z" fill="#ABB2BF"/>

</svg>
