<svg xmlns="http://www.w3.org/2000/svg">
    <!-- Logo -->
    <path id="logo" fill-rule="evenodd" clip-rule="evenodd" d="M39 0H26V13H13H0V26V39V52H13H26V39H39H52V26V13V0H39ZM13 39H26V26H39V13H26V26H13V39Z" fill="currentColor"/>

    <!-- Github -->
    <path id="github" d="M15.5 6C9.69875 6 5 10.5882 5 16.2529C5 20.7899 8.00562 24.6219 12.1794 25.9804C12.7044 26.0701 12.9012 25.7625 12.9012 25.4934C12.9012 25.2499 12.8881 24.4425 12.8881 23.5838C10.25 24.058 9.5675 22.9558 9.3575 22.3791C9.23938 22.0843 8.7275 21.1743 8.28125 20.9308C7.91375 20.7386 7.38875 20.2644 8.26813 20.2516C9.095 20.2388 9.68563 20.9949 9.8825 21.3025C10.8275 22.8533 12.3369 22.4175 12.9406 22.1484C13.0325 21.4819 13.3081 21.0334 13.61 20.777C11.2737 20.5207 8.8325 19.6364 8.8325 15.7147C8.8325 14.5997 9.23938 13.6769 9.90875 12.9592C9.80375 12.7029 9.43625 11.6519 10.0138 10.2422C10.0138 10.2422 10.8931 9.97301 12.9012 11.2931C13.7413 11.0624 14.6338 10.947 15.5263 10.947C16.4188 10.947 17.3113 11.0624 18.1513 11.2931C20.1594 9.9602 21.0387 10.2422 21.0387 10.2422C21.6163 11.6519 21.2488 12.7029 21.1438 12.9592C21.8131 13.6769 22.22 14.5868 22.22 15.7147C22.22 19.6492 19.7656 20.5207 17.4294 20.777C17.81 21.0975 18.1381 21.7126 18.1381 22.6738C18.1381 24.0452 18.125 25.1474 18.125 25.4934C18.125 25.7625 18.3219 26.0829 18.8469 25.9804C20.9314 25.2935 22.7428 23.9854 24.026 22.2403C25.3092 20.4953 25.9996 18.4012 26 16.2529C26 10.5882 21.3013 6 15.5 6Z" fill="currentColor"/>


    <path id="githubMobile" d="M31 12C19.3975 12 10 21.1764 10 32.5059C10 41.5797 16.0112 49.2438 24.3587 51.9608C25.4087 52.1403 25.8025 51.5251 25.8025 50.9868C25.8025 50.4998 25.7763 48.8849 25.7763 47.1676C20.5 48.116 19.135 45.9116 18.715 44.7581C18.4787 44.1686 17.455 42.3487 16.5625 41.8617C15.8275 41.4772 14.7775 40.5288 16.5363 40.5032C18.19 40.4775 19.3713 41.9898 19.765 42.605C21.655 45.7065 24.6738 44.835 25.8813 44.2968C26.065 42.9639 26.6162 42.0667 27.22 41.5541C22.5475 41.0414 17.665 39.2728 17.665 31.4293C17.665 29.1993 18.4788 27.3538 19.8175 25.9184C19.6075 25.4057 18.8725 23.3039 20.0275 20.4843C20.0275 20.4843 21.7863 19.946 25.8025 22.5862C27.4825 22.1248 29.2675 21.8941 31.0525 21.8941C32.8375 21.8941 34.6225 22.1248 36.3025 22.5862C40.3188 19.9204 42.0775 20.4843 42.0775 20.4843C43.2325 23.3039 42.4975 25.4057 42.2875 25.9184C43.6263 27.3538 44.44 29.1737 44.44 31.4293C44.44 39.2984 39.5313 41.0414 34.8588 41.5541C35.62 42.1949 36.2763 43.4253 36.2763 45.3477C36.2763 48.0903 36.25 50.2947 36.25 50.9868C36.25 51.5251 36.6438 52.1659 37.6938 51.9608C41.8628 50.5869 45.4856 47.9707 48.0521 44.4807C50.6185 40.9906 51.9993 36.8025 52 32.5059C52 21.1764 42.6025 12 31 12Z" fill="currentColor"/>

        

    <!-- Dribble -->
    <path id="dribble" fill-rule="evenodd" clip-rule="evenodd" d="M16.5 4C10.152 4 5 9.152 5 15.5C5 21.848 10.152 27 16.5 27C22.8365 27 28 21.848 28 15.5C28 9.152 22.8365 4 16.5 4ZM24.0958 9.3015C25.5115 11.0255 26.2951 13.1817 26.3167 15.4123C25.9918 15.3505 22.7488 14.6892 19.4814 15.1004C19.4066 14.9394 19.3434 14.764 19.2686 14.5901C19.0688 14.1157 18.8446 13.6298 18.6203 13.1669C22.2371 11.6964 23.8844 9.57606 24.0972 9.30006L24.0958 9.3015ZM16.5 5.69625C18.9941 5.69625 21.2768 6.63063 23.0119 8.16587C22.8365 8.416 21.3516 10.3983 17.8599 11.7079C16.2499 8.75238 14.4674 6.33162 14.1928 5.95788C14.9491 5.78129 15.7234 5.69349 16.5 5.69625ZM12.3212 6.61913C13.6375 8.44338 14.8535 10.3379 15.9638 12.2944C11.3739 13.5162 7.32012 13.4918 6.88312 13.4918C7.19917 12.005 7.85438 10.6114 8.79766 9.41949C9.74094 8.22761 10.9468 7.26973 12.3212 6.62056V6.61913ZM6.67181 15.5144V15.2125C7.09588 15.2269 11.8612 15.2887 16.7631 13.8167C17.0491 14.3644 17.3108 14.9264 17.5609 15.4871L17.1728 15.5992C12.1099 17.2336 9.416 21.6985 9.19031 22.0737C7.56856 20.2734 6.67131 17.936 6.67181 15.5129V15.5144ZM16.5 25.3282C14.3172 25.3316 12.1964 24.6027 10.4769 23.2582C10.6494 22.8959 12.6461 19.0549 18.1833 17.1215C18.2092 17.1086 18.2207 17.1086 18.2466 17.0971C19.1801 19.5068 19.8814 22.0002 20.341 24.5433C19.1277 25.0646 17.8205 25.3318 16.5 25.3282ZM21.9769 23.6449C21.8763 23.0454 21.3516 20.1776 20.0679 16.6471C23.1484 16.1613 25.8423 16.9591 26.1787 17.0712C25.9692 18.3975 25.4876 19.6662 24.7643 20.7974C24.0409 21.9287 23.0914 22.8982 21.9754 23.6449H21.9769Z" fill="currentColor"/>


    <path id="dribbleMobile" fill-rule="evenodd" clip-rule="evenodd" d="M33 8C20.304 8 10 18.304 10 31C10 43.696 20.304 54 33 54C45.673 54 56 43.696 56 31C56 18.304 45.673 8 33 8ZM48.1915 18.603C51.0229 22.0509 52.5902 26.3633 52.6334 30.8246C51.9836 30.701 45.4976 29.3785 38.9628 30.2008C38.8133 29.8788 38.6867 29.528 38.5372 29.1801C38.1376 28.2314 37.6891 27.2596 37.2406 26.3339C44.4741 23.3927 47.7689 19.1521 48.1944 18.6001L48.1915 18.603ZM33 11.3925C37.9881 11.3925 42.5536 13.2613 46.0237 16.3318C45.673 16.832 42.7031 20.7966 35.7198 23.4157C32.4998 17.5047 28.9347 12.6632 28.3856 11.9157C29.8982 11.5626 31.4468 11.387 33 11.3925V11.3925ZM24.6424 13.2383C27.2749 16.8868 29.707 20.6759 31.9276 24.5887C22.7477 27.0325 14.6402 26.9836 13.7662 26.9836C14.3983 24.0101 15.7088 21.2227 17.5953 18.839C19.4819 16.4552 21.8936 14.5395 24.6424 13.2411V13.2383ZM13.3436 31.0288V30.425C14.1917 30.4538 23.7224 30.5774 33.5261 27.6334C34.0982 28.7288 34.6215 29.8529 35.1217 30.9741L34.3455 31.1984C24.2198 34.4673 18.832 43.397 18.3806 44.1474C15.1371 40.5467 13.3426 35.872 13.3436 31.0259V31.0288ZM33 50.6564C28.6345 50.6632 24.3928 49.2054 20.9537 46.5164C21.2987 45.7919 25.2921 38.1099 36.3666 34.243C36.4184 34.2171 36.4414 34.2171 36.4931 34.1941C38.3602 39.0137 39.7628 44.0005 40.682 49.0866C38.2555 50.1293 35.641 50.6635 33 50.6564V50.6564ZM43.9538 47.2898C43.7525 46.0909 42.7031 40.3553 40.1358 33.2943C46.2969 32.3225 51.6846 33.9181 52.3574 34.1424C51.9383 36.795 50.9752 39.3323 49.5285 41.5949C48.0818 43.8574 46.1829 45.7963 43.9509 47.2898H43.9538Z" fill="currentColor"/> 


    <!-- Figma -->
    <path id="figma" d="M16 16C16 15.1159 16.3687 14.2681 17.0251 13.643C17.6815 13.0179 18.5717 12.6667 19.5 12.6667C20.4283 12.6667 21.3185 13.0179 21.9749 13.643C22.6313 14.2681 23 15.1159 23 16C23 16.8841 22.6313 17.7319 21.9749 18.357C21.3185 18.9821 20.4283 19.3333 19.5 19.3333C18.5717 19.3333 17.6815 18.9821 17.0251 18.357C16.3687 17.7319 16 16.8841 16 16ZM9 22.6667C9 21.7826 9.36875 20.9348 10.0251 20.3096C10.6815 19.6845 11.5717 19.3333 12.5 19.3333H16V22.6667C16 23.5507 15.6313 24.3986 14.9749 25.0237C14.3185 25.6488 13.4283 26 12.5 26C11.5717 26 10.6815 25.6488 10.0251 25.0237C9.36875 24.3986 9 23.5507 9 22.6667ZM16 6V12.6667H19.5C20.4283 12.6667 21.3185 12.3155 21.9749 11.6904C22.6313 11.0652 23 10.2174 23 9.33333C23 8.44928 22.6313 7.60143 21.9749 6.97631C21.3185 6.35119 20.4283 6 19.5 6H16ZM9 9.33333C9 10.2174 9.36875 11.0652 10.0251 11.6904C10.6815 12.3155 11.5717 12.6667 12.5 12.6667H16V6H12.5C11.5717 6 10.6815 6.35119 10.0251 6.97631C9.36875 7.60143 9 8.44928 9 9.33333ZM9 16C9 16.8841 9.36875 17.7319 10.0251 18.357C10.6815 18.9821 11.5717 19.3333 12.5 19.3333H16V12.6667H12.5C11.5717 12.6667 10.6815 13.0179 10.0251 13.643C9.36875 14.2681 9 15.1159 9 16Z" fill="currentColor"/>


    <path id="figmaMobile" d="M32 32C32 30.2319 32.7375 28.5362 34.0503 27.286C35.363 26.0357 37.1435 25.3333 39 25.3333C40.8565 25.3333 42.637 26.0357 43.9497 27.286C45.2625 28.5362 46 30.2319 46 32C46 33.7681 45.2625 35.4638 43.9497 36.714C42.637 37.9643 40.8565 38.6667 39 38.6667C37.1435 38.6667 35.363 37.9643 34.0503 36.714C32.7375 35.4638 32 33.7681 32 32ZM18 45.3333C18 43.5652 18.7375 41.8695 20.0503 40.6193C21.363 39.369 23.1435 38.6667 25 38.6667H32V45.3333C32 47.1014 31.2625 48.7971 29.9497 50.0474C28.637 51.2976 26.8565 52 25 52C23.1435 52 21.363 51.2976 20.0503 50.0474C18.7375 48.7971 18 47.1014 18 45.3333ZM32 12V25.3333H39C40.8565 25.3333 42.637 24.631 43.9497 23.3807C45.2625 22.1305 46 20.4348 46 18.6667C46 16.8986 45.2625 15.2029 43.9497 13.9526C42.637 12.7024 40.8565 12 39 12H32ZM18 18.6667C18 20.4348 18.7375 22.1305 20.0503 23.3807C21.363 24.631 23.1435 25.3333 25 25.3333H32V12H25C23.1435 12 21.363 12.7024 20.0503 13.9526C18.7375 15.2029 18 16.8986 18 18.6667V18.6667ZM18 32C18 33.7681 18.7375 35.4638 20.0503 36.714C21.363 37.9643 23.1435 38.6667 25 38.6667H32V25.3333H25C23.1435 25.3333 21.363 26.0357 20.0503 27.286C18.7375 28.5362 18 30.2319 18 32V32Z" fill="currentColor"/>


    <!-- Discord -->
    <path id="discord" d="M21.1641 1.65906C19.543 0.878258 17.8325 0.320987 16.0751 0.00113909C16.0592 -0.00167518 16.0428 0.000755409 16.0283 0.00809674C16.0137 0.0154381 16.0017 0.0273296 15.9938 0.0421361C15.7735 0.452106 15.5298 0.988347 15.3595 1.40816C13.4651 1.10643 11.5383 1.10643 9.64391 1.40816C9.45393 0.940495 9.23901 0.484433 9.00017 0.0421361C8.99216 0.0274917 8.9801 0.0157372 8.9656 0.00841949C8.9511 0.00110175 8.93482 -0.00143631 8.91892 0.00113909C7.16113 0.319276 5.45021 0.876835 3.82991 1.65906C3.81605 1.66461 3.80445 1.67504 3.7971 1.68858C0.556508 6.77057 -0.332545 11.7279 0.103388 16.623C0.10495 16.6459 0.119013 16.6689 0.1362 16.6836C2.02325 18.1507 4.13396 19.2708 6.37832 19.9962C6.39417 20.0014 6.4112 20.0013 6.42693 19.9957C6.44267 19.99 6.45629 19.9793 6.46582 19.965C6.94707 19.2763 7.37519 18.5498 7.74393 17.7856C7.75162 17.7699 7.75425 17.752 7.75143 17.7345C7.74862 17.7171 7.74051 17.7011 7.72831 17.6889C7.72023 17.6809 7.71065 17.6747 7.70018 17.6708C7.027 17.3993 6.37503 17.0731 5.7502 16.6951C5.73275 16.6847 5.71977 16.6677 5.71395 16.6476C5.70814 16.6274 5.70993 16.6057 5.71895 16.5869C5.72427 16.5747 5.73231 16.564 5.74239 16.5557C5.87364 16.4524 6.00489 16.3442 6.12989 16.236C6.14093 16.2266 6.15418 16.2206 6.16821 16.2186C6.18225 16.2166 6.19655 16.2186 6.20957 16.2245C10.3017 18.1858 14.7314 18.1858 18.7735 16.2245C18.787 16.2183 18.8018 16.2162 18.8164 16.2182C18.831 16.2202 18.8448 16.2264 18.8563 16.236C18.9813 16.3442 19.1126 16.4524 19.2438 16.5557C19.2544 16.5639 19.263 16.5747 19.2687 16.5872C19.2744 16.5996 19.277 16.6134 19.2764 16.6272C19.2758 16.641 19.2719 16.6544 19.2651 16.6663C19.2584 16.6781 19.2489 16.688 19.2376 16.6951C18.6142 17.0765 17.9614 17.4024 17.286 17.6692C17.2752 17.6733 17.2655 17.6798 17.2574 17.6883C17.2493 17.6968 17.243 17.7071 17.2391 17.7184C17.2355 17.7294 17.2341 17.741 17.2349 17.7525C17.2357 17.7641 17.2387 17.7754 17.2438 17.7856C17.6188 18.5482 18.0485 19.2763 18.5204 19.965C18.5299 19.9793 18.5435 19.99 18.5593 19.9957C18.575 20.0013 18.592 20.0014 18.6079 19.9962C20.856 19.2731 22.9701 18.1528 24.8594 16.6836C24.8688 16.6768 24.8767 16.6677 24.8824 16.6572C24.8881 16.6467 24.8914 16.635 24.8922 16.623C25.4141 10.9637 24.0188 6.04738 21.1954 1.69022C21.1925 1.68302 21.1883 1.67653 21.1829 1.67116C21.1775 1.66579 21.1711 1.66167 21.1641 1.65906ZM8.35486 13.6417C7.12206 13.6417 6.10801 12.4544 6.10801 10.9982C6.10801 9.54032 7.10331 8.35305 8.35486 8.35305C9.61579 8.35305 10.6205 9.55016 10.6017 10.9982C10.6017 12.4544 9.60641 13.6417 8.35486 13.6417ZM16.661 13.6417C15.4298 13.6417 14.4142 12.4544 14.4142 10.9982C14.4142 9.54032 15.4095 8.35305 16.661 8.35305C17.922 8.35305 18.9282 9.55016 18.9079 10.9982C18.9079 12.4544 17.922 13.6417 16.661 13.6417Z" fill="#ABB2BF"/>

    <!-- Email -->
    <path id='email' d="M0.071875 2.20292C0.216801 1.57709 0.573067 1.01832 1.08232 0.618104C1.59158 0.217889 2.22365 -4.32004e-05 2.875 6.42336e-09H20.125C20.7764 -4.32004e-05 21.4084 0.217889 21.9177 0.618104C22.4269 1.01832 22.7832 1.57709 22.9281 2.20292L11.5 9.0865L0.071875 2.20292ZM0 3.82075V13.8847L8.34181 8.84425L0 3.82075ZM9.71894 9.67583L0.274563 15.3807C0.507907 15.8657 0.876195 16.2753 1.33656 16.5619C1.79693 16.8486 2.33044 17.0005 2.875 17H20.125C20.6695 17.0001 21.2028 16.8479 21.6629 16.561C22.123 16.274 22.491 15.8643 22.724 15.3793L13.2796 9.67442L11.5 10.7468L9.71894 9.67442V9.67583ZM14.6582 8.84567L23 13.8847V3.82075L14.6582 8.84425V8.84567Z" fill="#ABB2BF"/>

</svg>
